<?xml version="1.0" encoding="utf-8"?>
<svg viewBox="0 0 44.2 45" xmlns="http://www.w3.org/2000/svg">
  <g id="layer1">
    <path id="path4715-2-6-7-0-6-2" fill="#740098" d="M22.103,0.398C9.896,0.398,0,10.293,0,22.5   l0,0c0,12.2,9.886,22.092,22.085,22.101v-4.176c-9.105-0.021-16.749-6.863-17.772-15.91h8.073v-4.083H4.309   c1.049-9.035,8.698-15.852,17.794-15.858c4.784,0.003,9.368,1.918,12.732,5.319l2.947-2.947   C33.636,2.762,27.993,0.405,22.103,0.398z"/>
    <path id="path4715-2-8-0-8" fill="#009100" d="M22.103,9.424   c-7.222,0-13.077,5.854-13.078,13.077l0,0c0,7.222,5.855,13.078,13.078,13.078l0,0c3.468-0.004,6.792-1.384,9.242-3.838   l-2.939-2.938c-1.671,1.673-3.938,2.614-6.303,2.617c-4.925,0-8.918-3.992-8.918-8.917c0,0,0,0,0-0.001   c0-4.925,3.993-8.917,8.918-8.917l0,0c2.396,0.001,4.69,0.965,6.367,2.676l2.935-2.935C28.95,10.833,25.6,9.428,22.103,9.424z"/>
  </g>
</svg>